<?xml version="1.0" encoding="UTF-8" standalone="no"?>
<!DOCTYPE svg PUBLIC "-//W3C//DTD SVG 1.1//EN"
 "http://www.w3.org/Graphics/SVG/1.1/DTD/svg11.dtd">
<!-- Generated by graphviz version 5.0.0 (20220707.1540)
 -->
<!-- Title: StorageDiagram Pages: 1 -->
<svg width="2381pt" height="579pt"
 viewBox="0.00 0.00 2380.74 579.40" xmlns="http://www.w3.org/2000/svg" xmlns:xlink="http://www.w3.org/1999/xlink">
<g id="graph0" class="graph" transform="scale(1 1) rotate(0) translate(4 575.4)">
<title>StorageDiagram</title>
<polygon fill="white" stroke="transparent" points="-4,4 -4,-575.4 2376.74,-575.4 2376.74,4 -4,4"/>
<!-- 6 -->
<g id="node1" class="node">
<title>6</title>
<polygon fill="#f2f2f2" stroke="black" points="0,-159.7 0,-457.3 810.92,-457.3 810.92,-159.7 0,-159.7"/>
<text text-anchor="middle" x="405.46" y="-440.7" font-family="Courier New" font-size="14.00">GasContract &lt;&lt;Contract&gt;&gt;</text>
<polyline fill="none" stroke="black" points="0,-432.5 810.92,-432.5 "/>
<text text-anchor="middle" x="24.8" y="-415.9" font-family="Courier New" font-size="14.00">slot</text>
<polyline fill="none" stroke="black" points="0,-407.7 49.61,-407.7 "/>
<text text-anchor="middle" x="24.8" y="-391.1" font-family="Courier New" font-size="14.00">0</text>
<polyline fill="none" stroke="black" points="0,-382.9 49.61,-382.9 "/>
<text text-anchor="middle" x="24.8" y="-366.3" font-family="Courier New" font-size="14.00">1</text>
<polyline fill="none" stroke="black" points="0,-358.1 49.61,-358.1 "/>
<text text-anchor="middle" x="24.8" y="-341.5" font-family="Courier New" font-size="14.00">2</text>
<polyline fill="none" stroke="black" points="0,-333.3 49.61,-333.3 "/>
<text text-anchor="middle" x="24.8" y="-316.7" font-family="Courier New" font-size="14.00">3</text>
<polyline fill="none" stroke="black" points="0,-308.5 49.61,-308.5 "/>
<text text-anchor="middle" x="24.8" y="-291.9" font-family="Courier New" font-size="14.00">4</text>
<polyline fill="none" stroke="black" points="0,-283.7 49.61,-283.7 "/>
<text text-anchor="middle" x="24.8" y="-267.1" font-family="Courier New" font-size="14.00">5&#45;9</text>
<polyline fill="none" stroke="black" points="0,-258.9 49.61,-258.9 "/>
<text text-anchor="middle" x="24.8" y="-242.3" font-family="Courier New" font-size="14.00">10</text>
<polyline fill="none" stroke="black" points="0,-234.1 49.61,-234.1 "/>
<text text-anchor="middle" x="24.8" y="-217.5" font-family="Courier New" font-size="14.00">11</text>
<polyline fill="none" stroke="black" points="0,-209.3 49.61,-209.3 "/>
<text text-anchor="middle" x="24.8" y="-192.7" font-family="Courier New" font-size="14.00">12</text>
<polyline fill="none" stroke="black" points="0,-184.5 49.61,-184.5 "/>
<text text-anchor="middle" x="24.8" y="-167.9" font-family="Courier New" font-size="14.00">13</text>
<polyline fill="none" stroke="black" points="49.61,-159.7 49.61,-432.5 "/>
<text text-anchor="middle" x="430.26" y="-415.9" font-family="Courier New" font-size="14.00">type: &lt;inherited contract&gt;.variable (bytes)</text>
<polyline fill="none" stroke="black" points="49.61,-407.7 810.92,-407.7 "/>
<text text-anchor="middle" x="124.82" y="-391.1" font-family="Courier New" font-size="14.00">unallocated (10)</text>
<polyline fill="none" stroke="black" points="200.03,-382.9 200.03,-407.7 "/>
<text text-anchor="middle" x="279.44" y="-391.1" font-family="Courier New" font-size="14.00">bool: isReady (1)</text>
<polyline fill="none" stroke="black" points="358.85,-382.9 358.85,-407.7 "/>
<text text-anchor="middle" x="463.47" y="-391.1" font-family="Courier New" font-size="14.00">uint8: tradePercent (1)</text>
<polyline fill="none" stroke="black" points="568.08,-382.9 568.08,-407.7 "/>
<text text-anchor="middle" x="689.5" y="-391.1" font-family="Courier New" font-size="14.00">address: contractOwner (20)</text>
<polyline fill="none" stroke="black" points="49.61,-382.9 810.92,-382.9 "/>
<text text-anchor="middle" x="430.22" y="-366.3" font-family="Courier New" font-size="14.00">uint256: paymentCounter (32)</text>
<polyline fill="none" stroke="black" points="49.61,-358.1 810.92,-358.1 "/>
<text text-anchor="middle" x="430.13" y="-341.5" font-family="Courier New" font-size="14.00">mapping(address=&gt;uint256): balances (32)</text>
<polyline fill="none" stroke="black" points="49.61,-333.3 810.92,-333.3 "/>
<text text-anchor="middle" x="430.03" y="-316.7" font-family="Courier New" font-size="14.00">mapping(address=&gt;Payment[]): payments (32)</text>
<polyline fill="none" stroke="black" points="49.61,-308.5 810.92,-308.5 "/>
<text text-anchor="middle" x="429.83" y="-291.9" font-family="Courier New" font-size="14.00">mapping(address=&gt;uint256): whitelist (32)</text>
<polyline fill="none" stroke="black" points="49.61,-283.7 810.92,-283.7 "/>
<text text-anchor="middle" x="430.03" y="-267.1" font-family="Courier New" font-size="14.00">address[5]: administrators (160)</text>
<polyline fill="none" stroke="black" points="49.61,-258.9 810.92,-258.9 "/>
<text text-anchor="middle" x="430.13" y="-242.3" font-family="Courier New" font-size="14.00">History[]: paymentHistory (32)</text>
<polyline fill="none" stroke="black" points="49.61,-234.1 810.92,-234.1 "/>
<text text-anchor="middle" x="429.92" y="-217.5" font-family="Courier New" font-size="14.00">uint256: wasLastOdd (32)</text>
<polyline fill="none" stroke="black" points="49.61,-209.3 810.92,-209.3 "/>
<text text-anchor="middle" x="430.14" y="-192.7" font-family="Courier New" font-size="14.00">mapping(address=&gt;uint256): isOddWhitelistUser (32)</text>
<polyline fill="none" stroke="black" points="49.61,-184.5 810.92,-184.5 "/>
<text text-anchor="middle" x="430.14" y="-167.9" font-family="Courier New" font-size="14.00">mapping(address=&gt;ImportantStruct): whiteListStruct (32)</text>
</g>
<!-- 1 -->
<g id="node2" class="node">
<title>1</title>
<polygon fill="#f2f2f2" stroke="black" points="867.52,-422.1 867.52,-570.9 1745.65,-570.9 1745.65,-422.1 867.52,-422.1"/>
<text text-anchor="middle" x="1306.59" y="-554.3" font-family="Courier New" font-size="14.00">Payment &lt;&lt;Struct&gt;&gt;</text>
<polyline fill="none" stroke="black" points="867.52,-546.1 1745.65,-546.1 "/>
<text text-anchor="middle" x="900.73" y="-529.5" font-family="Courier New" font-size="14.00">offset</text>
<polyline fill="none" stroke="black" points="867.52,-521.3 933.93,-521.3 "/>
<text text-anchor="middle" x="900.73" y="-504.7" font-family="Courier New" font-size="14.00">0</text>
<polyline fill="none" stroke="black" points="867.52,-496.5 933.93,-496.5 "/>
<text text-anchor="middle" x="900.73" y="-479.9" font-family="Courier New" font-size="14.00">1</text>
<polyline fill="none" stroke="black" points="867.52,-471.7 933.93,-471.7 "/>
<text text-anchor="middle" x="900.73" y="-455.1" font-family="Courier New" font-size="14.00">2</text>
<polyline fill="none" stroke="black" points="867.52,-446.9 933.93,-446.9 "/>
<text text-anchor="middle" x="900.73" y="-430.3" font-family="Courier New" font-size="14.00">3</text>
<polyline fill="none" stroke="black" points="933.93,-422.1 933.93,-546.1 "/>
<text text-anchor="middle" x="1339.79" y="-529.5" font-family="Courier New" font-size="14.00">type: variable (bytes)</text>
<polyline fill="none" stroke="black" points="933.93,-521.3 1745.65,-521.3 "/>
<text text-anchor="middle" x="1009.14" y="-504.7" font-family="Courier New" font-size="14.00">unallocated (10)</text>
<polyline fill="none" stroke="black" points="1084.35,-496.5 1084.35,-521.3 "/>
<text text-anchor="middle" x="1188.97" y="-504.7" font-family="Courier New" font-size="14.00">address: recipient (20)</text>
<polyline fill="none" stroke="black" points="1293.58,-496.5 1293.58,-521.3 "/>
<text text-anchor="middle" x="1394" y="-504.7" font-family="Courier New" font-size="14.00">bool: adminUpdated (1)</text>
<polyline fill="none" stroke="black" points="1494.41,-496.5 1494.41,-521.3 "/>
<text text-anchor="middle" x="1620.03" y="-504.7" font-family="Courier New" font-size="14.00">PaymentType: paymentType (1)</text>
<polyline fill="none" stroke="black" points="933.93,-496.5 1745.65,-496.5 "/>
<text text-anchor="middle" x="1049.44" y="-479.9" font-family="Courier New" font-size="14.00">unallocated (4)</text>
<polyline fill="none" stroke="black" points="1164.95,-471.7 1164.95,-496.5 "/>
<text text-anchor="middle" x="1322.47" y="-479.9" font-family="Courier New" font-size="14.00">bytes8: recipientName (8)</text>
<polyline fill="none" stroke="black" points="1479.98,-471.7 1479.98,-496.5 "/>
<text text-anchor="middle" x="1612.8" y="-479.9" font-family="Courier New" font-size="14.00">address: admin (20)</text>
<polyline fill="none" stroke="black" points="933.93,-471.7 1745.65,-471.7 "/>
<text text-anchor="middle" x="1339.54" y="-455.1" font-family="Courier New" font-size="14.00">uint256: paymentID (32)</text>
<polyline fill="none" stroke="black" points="933.93,-446.9 1745.65,-446.9 "/>
<text text-anchor="middle" x="1339.44" y="-430.3" font-family="Courier New" font-size="14.00">uint256: amount (32)</text>
</g>
<!-- 6&#45;&gt;1 -->
<g id="edge1" class="edge">
<title>6:13&#45;&gt;1</title>
<path fill="none" stroke="black" d="M810.92,-320.5C854.83,-320.5 813.04,-384.57 846.92,-412.5 850.96,-415.83 855.1,-419.05 859.31,-422.16"/>
<polygon fill="black" stroke="black" points="857.34,-425.05 867.52,-428 861.4,-419.35 857.34,-425.05"/>
</g>
<!-- 2 -->
<g id="node3" class="node">
<title>2</title>
<polygon fill="#f2f2f2" stroke="black" points="1147.36,-254.1 1147.36,-402.9 1465.81,-402.9 1465.81,-254.1 1147.36,-254.1"/>
<text text-anchor="middle" x="1306.59" y="-386.3" font-family="Courier New" font-size="14.00">address[5]: administrators &lt;&lt;Array&gt;&gt;</text>
<polyline fill="none" stroke="black" points="1147.36,-378.1 1465.81,-378.1 "/>
<text text-anchor="middle" x="1172.16" y="-361.5" font-family="Courier New" font-size="14.00">slot</text>
<polyline fill="none" stroke="black" points="1147.36,-353.3 1196.97,-353.3 "/>
<text text-anchor="middle" x="1172.16" y="-336.7" font-family="Courier New" font-size="14.00">5</text>
<polyline fill="none" stroke="black" points="1147.36,-328.5 1196.97,-328.5 "/>
<text text-anchor="middle" x="1172.16" y="-311.9" font-family="Courier New" font-size="14.00">6</text>
<polyline fill="none" stroke="black" points="1147.36,-303.7 1196.97,-303.7 "/>
<text text-anchor="middle" x="1172.16" y="-287.1" font-family="Courier New" font-size="14.00">8</text>
<polyline fill="none" stroke="black" points="1147.36,-278.9 1196.97,-278.9 "/>
<text text-anchor="middle" x="1172.16" y="-262.3" font-family="Courier New" font-size="14.00">9</text>
<polyline fill="none" stroke="black" points="1196.97,-254.1 1196.97,-378.1 "/>
<text text-anchor="middle" x="1331.09" y="-361.5" font-family="Courier New" font-size="14.00">type: variable (bytes)</text>
<polyline fill="none" stroke="black" points="1196.97,-353.3 1465.21,-353.3 "/>
<text text-anchor="middle" x="1272.18" y="-336.7" font-family="Courier New" font-size="14.00">unallocated (12)</text>
<polyline fill="none" stroke="black" points="1347.39,-328.5 1347.39,-353.3 "/>
<text text-anchor="middle" x="1406.3" y="-336.7" font-family="Courier New" font-size="14.00">address (20)</text>
<polyline fill="none" stroke="black" points="1196.97,-328.5 1465.21,-328.5 "/>
<text text-anchor="middle" x="1272.18" y="-311.9" font-family="Courier New" font-size="14.00">unallocated (12)</text>
<polyline fill="none" stroke="black" points="1347.39,-303.7 1347.39,-328.5 "/>
<text text-anchor="middle" x="1406.3" y="-311.9" font-family="Courier New" font-size="14.00">address (20)</text>
<polyline fill="none" stroke="black" points="1196.97,-303.7 1465.21,-303.7 "/>
<text text-anchor="middle" x="1272.18" y="-287.1" font-family="Courier New" font-size="14.00">unallocated (12)</text>
<polyline fill="none" stroke="black" points="1347.39,-278.9 1347.39,-303.7 "/>
<text text-anchor="middle" x="1406.3" y="-287.1" font-family="Courier New" font-size="14.00">address (20)</text>
<polyline fill="none" stroke="black" points="1196.97,-278.9 1465.21,-278.9 "/>
<text text-anchor="middle" x="1272.18" y="-262.3" font-family="Courier New" font-size="14.00">unallocated (12)</text>
<polyline fill="none" stroke="black" points="1347.39,-254.1 1347.39,-278.9 "/>
<text text-anchor="middle" x="1406.3" y="-262.3" font-family="Courier New" font-size="14.00">address (20)</text>
</g>
<!-- 6&#45;&gt;2 -->
<g id="edge2" class="edge">
<title>6:19&#45;&gt;2</title>
<path fill="none" stroke="black" d="M810.92,-271.5C919.98,-271.5 1041.69,-285.34 1137.09,-299.39"/>
<polygon fill="black" stroke="black" points="1136.71,-302.87 1147.11,-300.88 1137.74,-295.94 1136.71,-302.87"/>
</g>
<!-- 4 -->
<g id="node5" class="node">
<title>4</title>
<polygon fill="#f2f2f2" stroke="black" points="1021.34,-143.9 1021.34,-235.1 1591.83,-235.1 1591.83,-143.9 1021.34,-143.9"/>
<text text-anchor="middle" x="1306.59" y="-218.5" font-family="Courier New" font-size="14.00">History[]: paymentHistory &lt;&lt;Array&gt;&gt;</text>
<text text-anchor="middle" x="1306.59" y="-201.7" font-family="Courier New" font-size="14.00">0xc65a7bb8d6351c1cf70c95a316cc6a92839c986682d98bc35f958f4883f9d2a8</text>
<polyline fill="none" stroke="black" points="1021.34,-193.5 1591.83,-193.5 "/>
<text text-anchor="middle" x="1130.04" y="-176.9" font-family="Courier New" font-size="14.00">offset</text>
<polyline fill="none" stroke="black" points="1021.34,-168.7 1238.75,-168.7 "/>
<text text-anchor="middle" x="1130.04" y="-152.1" font-family="Courier New" font-size="14.00">0&#45;2</text>
<polyline fill="none" stroke="black" points="1238.75,-143.9 1238.75,-193.5 "/>
<text text-anchor="middle" x="1415.16" y="-176.9" font-family="Courier New" font-size="14.00">type: variable (bytes)</text>
<polyline fill="none" stroke="black" points="1238.75,-168.7 1591.58,-168.7 "/>
<text text-anchor="middle" x="1415.16" y="-152.1" font-family="Courier New" font-size="14.00">History (96)</text>
</g>
<!-- 6&#45;&gt;4 -->
<g id="edge3" class="edge">
<title>6:24&#45;&gt;4</title>
<path fill="none" stroke="black" d="M810.92,-246.5C833.2,-246.5 917.8,-237.25 1010.89,-226.21"/>
<polygon fill="black" stroke="black" points="1011.58,-229.65 1021.09,-224.99 1010.75,-222.7 1011.58,-229.65"/>
</g>
<!-- 5 -->
<g id="node6" class="node">
<title>5</title>
<polygon fill="#f2f2f2" stroke="black" points="846.92,-0.5 846.92,-124.5 1766.25,-124.5 1766.25,-0.5 846.92,-0.5"/>
<text text-anchor="middle" x="1306.59" y="-107.9" font-family="Courier New" font-size="14.00">ImportantStruct &lt;&lt;Struct&gt;&gt;</text>
<polyline fill="none" stroke="black" points="846.92,-99.7 1766.25,-99.7 "/>
<text text-anchor="middle" x="880.12" y="-83.1" font-family="Courier New" font-size="14.00">offset</text>
<polyline fill="none" stroke="black" points="846.92,-74.9 913.33,-74.9 "/>
<text text-anchor="middle" x="880.12" y="-58.3" font-family="Courier New" font-size="14.00">0</text>
<polyline fill="none" stroke="black" points="846.92,-50.1 913.33,-50.1 "/>
<text text-anchor="middle" x="880.12" y="-33.5" font-family="Courier New" font-size="14.00">1</text>
<polyline fill="none" stroke="black" points="846.92,-25.3 913.33,-25.3 "/>
<text text-anchor="middle" x="880.12" y="-8.7" font-family="Courier New" font-size="14.00">2</text>
<polyline fill="none" stroke="black" points="913.33,-0.5 913.33,-99.7 "/>
<text text-anchor="middle" x="1339.79" y="-83.1" font-family="Courier New" font-size="14.00">type: variable (bytes)</text>
<polyline fill="none" stroke="black" points="913.33,-74.9 1766.25,-74.9 "/>
<text text-anchor="middle" x="1339.34" y="-58.3" font-family="Courier New" font-size="14.00">uint256: amount (32)</text>
<polyline fill="none" stroke="black" points="913.33,-50.1 1766.25,-50.1 "/>
<text text-anchor="middle" x="1339.74" y="-33.5" font-family="Courier New" font-size="14.00">uint256: bigValue (32)</text>
<polyline fill="none" stroke="black" points="913.33,-25.3 1766.25,-25.3 "/>
<text text-anchor="middle" x="984.34" y="-8.7" font-family="Courier New" font-size="14.00">unallocated (9)</text>
<polyline fill="none" stroke="black" points="1055.35,-0.5 1055.35,-25.3 "/>
<text text-anchor="middle" x="1147.36" y="-8.7" font-family="Courier New" font-size="14.00">address: sender (20)</text>
<polyline fill="none" stroke="black" points="1239.38,-0.5 1239.38,-25.3 "/>
<text text-anchor="middle" x="1343.99" y="-8.7" font-family="Courier New" font-size="14.00">bool: paymentStatus (1)</text>
<polyline fill="none" stroke="black" points="1448.61,-0.5 1448.61,-25.3 "/>
<text text-anchor="middle" x="1528.02" y="-8.7" font-family="Courier New" font-size="14.00">uint8: valueB (1)</text>
<polyline fill="none" stroke="black" points="1607.43,-0.5 1607.43,-25.3 "/>
<text text-anchor="middle" x="1686.84" y="-8.7" font-family="Courier New" font-size="14.00">uint8: valueA (1)</text>
</g>
<!-- 6&#45;&gt;5 -->
<g id="edge4" class="edge">
<title>6:33&#45;&gt;5</title>
<path fill="none" stroke="black" d="M810.92,-172.5C834.18,-172.5 826.33,-145.33 846.92,-134.5 850.53,-132.6 854.17,-130.75 857.85,-128.95"/>
<polygon fill="black" stroke="black" points="859.55,-132.02 867.07,-124.55 856.53,-125.7 859.55,-132.02"/>
</g>
<!-- 3 -->
<g id="node4" class="node">
<title>3</title>
<polygon fill="#f2f2f2" stroke="black" points="1802.25,-86.1 1802.25,-226.9 2372.74,-226.9 2372.74,-86.1 1802.25,-86.1"/>
<text text-anchor="middle" x="2087.5" y="-210.3" font-family="Courier New" font-size="14.00">History &lt;&lt;Struct&gt;&gt;</text>
<text text-anchor="middle" x="2087.5" y="-193.5" font-family="Courier New" font-size="14.00">0xc65a7bb8d6351c1cf70c95a316cc6a92839c986682d98bc35f958f4883f9d2a8</text>
<polyline fill="none" stroke="black" points="1802.25,-185.3 2372.74,-185.3 "/>
<text text-anchor="middle" x="1871.46" y="-168.7" font-family="Courier New" font-size="14.00">offset</text>
<polyline fill="none" stroke="black" points="1802.25,-160.5 1940.66,-160.5 "/>
<text text-anchor="middle" x="1871.46" y="-143.9" font-family="Courier New" font-size="14.00">0</text>
<polyline fill="none" stroke="black" points="1802.25,-135.7 1940.66,-135.7 "/>
<text text-anchor="middle" x="1871.46" y="-119.1" font-family="Courier New" font-size="14.00">1</text>
<polyline fill="none" stroke="black" points="1802.25,-110.9 1940.66,-110.9 "/>
<text text-anchor="middle" x="1871.46" y="-94.3" font-family="Courier New" font-size="14.00">2</text>
<polyline fill="none" stroke="black" points="1940.66,-86.1 1940.66,-185.3 "/>
<text text-anchor="middle" x="2156.49" y="-168.7" font-family="Courier New" font-size="14.00">type: variable (bytes)</text>
<polyline fill="none" stroke="black" points="1940.66,-160.5 2372.31,-160.5 "/>
<text text-anchor="middle" x="2156.48" y="-143.9" font-family="Courier New" font-size="14.00">uint256: lastUpdate (32)</text>
<polyline fill="none" stroke="black" points="1940.66,-135.7 2372.31,-135.7 "/>
<text text-anchor="middle" x="2033.87" y="-119.1" font-family="Courier New" font-size="14.00">unallocated (12)</text>
<polyline fill="none" stroke="black" points="2127.08,-110.9 2127.08,-135.7 "/>
<text text-anchor="middle" x="2249.7" y="-119.1" font-family="Courier New" font-size="14.00">address: updatedBy (20)</text>
<polyline fill="none" stroke="black" points="1940.66,-110.9 2372.31,-110.9 "/>
<text text-anchor="middle" x="2156.18" y="-94.3" font-family="Courier New" font-size="14.00">uint256: blockNumber (32)</text>
</g>
<!-- 4&#45;&gt;3 -->
<g id="edge5" class="edge">
<title>4:23&#45;&gt;3</title>
<path fill="none" stroke="black" d="M1592.59,-156.5C1657.12,-156.5 1726.4,-156.5 1792.06,-156.5"/>
<polygon fill="black" stroke="black" points="1792.14,-160 1802.14,-156.5 1792.14,-153 1792.14,-160"/>
</g>
</g>
</svg>
